<?xml version="1.0" encoding="UTF-8"?>
<svg version="1.1" xmlns="http://www.w3.org/2000/svg" width="438" height="360">
<path d="M0 0 C4.336932 1.39428897 6.6973368 3.40122929 9.8125 6.6875 C12.69227084 9.65594413 15.5417047 12.56439746 18.6875 15.25 C22.69215123 18.67791647 26.53089721 22.26964072 30.375 25.875 C34.54993311 29.78884012 38.73125443 33.68811014 43 37.5 C47.22400134 41.2734412 51.36633784 45.12833772 55.5 49 C60.44875123 53.63446686 65.43401836 58.21868419 70.48828125 62.73828125 C75.1417705 66.92859272 79.72687642 71.19346168 84.32226562 75.44726562 C87.0671749 77.98766478 89.81459647 80.52534042 92.5625 83.0625 C93.10036133 83.55911133 93.63822266 84.05572266 94.19238281 84.56738281 C99.7819831 89.72571798 105.38994643 94.86393115 111 100 C113.96503477 102.71452358 116.92943852 105.42971581 119.890625 108.1484375 C122.12565757 110.20034159 124.36655054 112.24567983 126.609375 114.2890625 C127.80217174 115.38011169 128.99488204 116.47125539 130.1875 117.5625 C130.75267334 118.07546631 131.31784668 118.58843262 131.90014648 119.11694336 C135.88668921 122.77337842 135.88668921 122.77337842 137 125 C133.36105072 123.63150275 130.0675892 121.99539358 126.703125 120.05078125 C125.67509766 119.4578125 124.64707031 118.86484375 123.58789062 118.25390625 C122.48638672 117.61324219 121.38488281 116.97257812 120.25 116.3125 C119.08532085 115.63796145 117.92060671 114.96348331 116.75585938 114.2890625 C107.91550448 109.1595691 99.1492832 103.91047671 90.39941406 98.62817383 C82.98370955 94.16144859 75.50966984 89.8066207 68 85.5 C58.41040725 80.00059197 48.90905642 74.37188197 39.44726562 68.65576172 C30.38920554 63.19817974 21.24031382 57.90750767 12.06054688 52.65820312 C11.01962891 52.06201172 9.97871094 51.46582031 8.90625 50.8515625 C7.98134766 50.32385254 7.05644531 49.79614258 6.10351562 49.25244141 C4 48 4 48 3 47 C1.79422104 53.02889482 0.7918977 59.09820649 3 65 C7.46700266 70.01215599 14.16817604 72.6203349 20.10058594 75.51513672 C24.86089872 77.95301331 29.27896844 80.88693516 33.75 83.8125 C35.59363901 84.99569431 37.43871358 86.1766545 39.28515625 87.35546875 C40.21730957 87.95149902 41.14946289 88.5475293 42.10986328 89.16162109 C47.11675379 92.34643994 52.15220212 95.48535783 57.1875 98.625 C64.30429486 103.06363258 71.413066 107.51383134 78.5 112 C87.59646418 117.75666177 96.72396905 123.46318147 105.85546875 129.1640625 C106.75702194 129.77340637 107.65857513 130.38275024 108.58744812 131.01055908 C111.30082551 132.59239701 113.12516797 133.40023538 116.03742981 134.25115967 C121.19004729 136.05933078 125.04605801 138.29058992 128 143 C130.98636129 154.05698474 130.04278886 166.18242312 129.8242321 177.53416872 C129.75206078 182.15991535 129.77092456 186.7852959 129.77990723 191.41146851 C129.7831763 200.16002744 129.7052258 208.90587901 129.59768724 217.65370119 C129.47918611 227.61739553 129.4518369 237.5806982 129.43193531 247.54500127 C129.38898708 268.03117267 129.23224716 288.51515712 129 309 C131.01988568 304.83992281 133.03815348 300.67906564 135.05506897 296.51754761 C135.73818177 295.10861184 136.4216996 293.69987236 137.10566711 292.29135132 C141.64396797 282.94456549 146.09550786 273.56470495 150.4375 264.125 C155.50192775 253.14450782 160.73070333 242.25504833 166.03048706 231.38677979 C171.16205782 220.85792587 176.15136303 210.27526219 181.04882812 199.63500977 C186.06411467 188.77710084 191.28238818 178.02097713 196.53320312 167.27539062 C200.13407996 159.89937568 203.65977824 152.49879786 207 145 C209.64 145 212.28 145 215 145 C224.86045382 166.66691954 234.64466367 188.36233741 244.17718506 210.17575073 C250.06562317 223.64639184 256.05860465 237.06639909 262.1131897 250.46310425 C268.84615068 265.36663686 275.44621683 280.32620416 281.98828125 295.31445312 C282.34641907 296.13383865 282.70455688 296.95322418 283.07354736 297.79743958 C283.72871265 299.29680914 284.38278482 300.79665725 285.03533936 302.29716492 C287.01162101 306.8198449 289.05678223 311.3077375 291.12799072 315.78779602 C291.66638706 316.95280797 292.2047834 318.11781992 292.75949478 319.31813526 C293.1688615 320.20315063 293.57822823 321.08816599 294 322 C294.78956164 302.45743133 295.17439979 282.95402509 295.203125 263.39453125 C295.20587587 262.05214606 295.20873333 260.70976108 295.21169281 259.36737633 C295.22520842 253.08196106 295.23496543 246.79655793 295.2388947 240.5111292 C295.24341348 233.33304439 295.26120244 226.15514634 295.2898953 218.97711831 C295.31155805 213.35858563 295.32160052 207.74010562 295.32293582 202.12153167 C295.32397547 198.79264163 295.33119855 195.46407303 295.34775543 192.13520241 C295.36485542 188.44260905 295.362929 184.75047846 295.35644531 181.05786133 C295.3656601 179.97988281 295.37487488 178.9019043 295.3843689 177.79125977 C295.34827863 171.21242251 294.7176455 165.07122189 292 159 C289.87058374 157.27158638 289.87058374 157.27158638 287 157 C286.38334473 156.87093262 285.76668945 156.74186523 285.13134766 156.60888672 C283.03100034 156.17300335 280.92682045 155.7991349 278.8125 155.4375 C271.24795362 154.12397681 271.24795362 154.12397681 269 153 C269 149.7 269 146.4 269 143 C297.71 143 326.42 143 356 143 C356 146.3 356 149.6 356 153 C353.17996453 154.41001773 350.43910216 154.49621929 347.3125 154.875 C340.72174982 155.79918912 335.76688636 156.53223649 330.6875 161.0625 C326.8419664 167.75657701 326.85004663 175.28795547 326.49633789 182.83398438 C326.4543908 183.70415443 326.41244371 184.57432449 326.3692255 185.47086334 C325.85731071 196.50730116 325.55280411 207.55007932 325.24609375 218.59375 C325.18033947 220.91947647 325.11450624 223.24520071 325.04859924 225.57092285 C324.91180587 230.41833409 324.77675244 235.2657901 324.64282227 240.11328125 C324.50695876 245.02352144 324.36825809 249.93366763 324.22680664 254.84375 C323.77438323 270.56152441 323.34912889 286.27955795 323 302 C322.98101906 302.84302673 322.96203812 303.68605347 322.94248199 304.55462646 C322.83872598 309.29676763 322.76715956 314.03810092 322.72265625 318.78125 C322.70295273 319.82422241 322.68324921 320.86719482 322.66294861 321.94177246 C322.64869294 328.28652276 323.4293306 334.1405981 326 340 C330.62746689 344.58475181 336.16400613 344.99688377 342.375 345.75 C343.30183594 345.87503906 344.22867187 346.00007813 345.18359375 346.12890625 C347.45390899 346.4331753 349.72674818 346.71850916 352 347 C352 350.63 352 354.26 352 358 C333.52 358 315.04 358 296 358 C290.86436512 347.72873025 285.79206231 337.46401376 280.9375 327.0625 C280.62151855 326.38735352 280.30553711 325.71220703 279.97998047 325.01660156 C274.75873491 313.85894232 269.64188796 302.65560301 264.56442261 291.43191528 C259.6568505 280.58644766 254.64576901 269.79383298 249.56954956 259.02636719 C245.99735438 251.44623168 242.46087274 243.85223257 239.00390625 236.21875 C238.67252655 235.48712646 238.34114685 234.75550293 237.99972534 234.00170898 C236.41875985 230.50750926 234.84282888 227.01113132 233.2734375 223.51171875 C229.08977034 214.21565443 224.61816497 205.08767173 220 196 C219.50822266 197.08901611 219.01644531 198.17803223 218.50976562 199.30004883 C216.17415736 204.47130904 213.83734877 209.64202626 211.5 214.8125 C211.07160828 215.76015228 210.64321655 216.70780457 210.20184326 217.68417358 C204.37337765 230.57434718 198.51798177 243.45170328 192.625 256.3125 C187.41639254 267.68200936 182.25711206 279.07185055 177.15625 290.49023438 C173.86126172 297.86145509 170.54609777 305.22321493 167.21484375 312.578125 C166.79561142 313.50382797 166.37637909 314.42953094 165.94444275 315.38328552 C163.86773145 319.96788939 161.78953699 324.55181549 159.7097168 329.13500977 C155.06039428 339.38950957 150.48091596 349.67075665 146 360 C137.3632082 359.41165051 128.80538949 358.55185016 120.22412109 357.41772461 C118.41898293 357.18341988 118.41898293 357.18341988 116.57737732 356.94438171 C113.31895594 356.52103291 110.06092252 356.09482686 106.80298948 355.66774058 C103.36929434 355.21872926 99.93495623 354.77469786 96.50064087 354.33045959 C84.83997546 352.82123175 73.18030691 351.30440305 61.52148438 349.78100586 C55.06011394 348.93678596 48.59810327 348.09764695 42.13537848 347.26385695 C38.72811674 346.82401593 35.32124509 346.38153448 31.91517258 345.9325695 C28.11661022 345.4329499 24.31701677 344.94199805 20.51708984 344.45288086 C19.40821915 344.30484009 18.29934845 344.15679932 17.15687561 344.00427246 C7.52779701 342.78071651 -1.47483451 342.31343809 -10.96240234 344.56054688 C-11.67774139 344.72635757 -12.39308044 344.89216827 -13.13009644 345.06300354 C-15.45148156 345.6037999 -17.76850757 346.1612739 -20.0859375 346.71875 C-21.71705087 347.10111265 -23.3484554 347.48223517 -24.98013306 347.86218262 C-29.24505064 348.85800438 -33.50665211 349.86729347 -37.76745605 350.8805542 C-44.60589692 352.50508808 -51.44849523 354.1118648 -58.29246902 355.71290588 C-60.67402425 356.27257532 -63.05366675 356.83987246 -65.43319702 357.40808105 C-66.89339686 357.75210995 -68.35364997 358.09591284 -69.81396484 358.43945312 C-71.08428558 358.7414563 -72.35460632 359.04345947 -73.66342163 359.35461426 C-76.57889231 359.91854623 -79.053091 360.0518744 -82 360 C-82.32086588 325.22222602 -82.56734684 290.44479155 -82.71491461 255.66585561 C-82.73242325 251.55433427 -82.75054388 247.44281583 -82.76904297 243.33129883 C-82.77271531 242.51281442 -82.77638766 241.69433002 -82.78017129 240.85104305 C-82.84099103 227.6205089 -82.95131803 214.39083159 -83.08013915 201.16080474 C-83.21134047 187.57238669 -83.28888109 173.9844155 -83.31723893 160.39539009 C-83.33639278 152.01837087 -83.39674151 143.64377375 -83.51083054 135.26750077 C-83.5851838 129.51334455 -83.60712538 123.7604291 -83.58901928 118.00582808 C-83.58009919 114.69006811 -83.60093582 111.3818904 -83.66887665 108.06632042 C-84.09572059 86.15187162 -84.09572059 86.15187162 -77.12743771 78.06653887 C-74.76514318 75.67945555 -72.31462121 73.48698639 -69.69561791 71.38602173 C-67.25961673 69.39480039 -65.11555305 67.14849314 -62.94140625 64.87890625 C-61.48450915 63.43733147 -60.02497849 61.99841213 -58.5625 60.5625 C-54.43863269 56.51079135 -50.35542614 52.480273 -46.58984375 48.08984375 C-41.52807845 42.20580398 -35.90830907 36.86490148 -30.3828125 31.421875 C-25.98778893 27.06692763 -21.76449247 22.66128177 -17.73779297 17.96484375 C-14.51089281 14.31633398 -11.02585893 10.92216619 -7.5625 7.5 C-6.83095703 6.77296875 -6.09941406 6.0459375 -5.34570312 5.296875 C-3.56610176 3.52890501 -1.78419082 1.76333622 0 0 Z M2 88 C2 107.47 2 126.94 2 147 C11.99645938 151.99822969 21.99141293 156.97074246 32.0625 161.8125 C33.79790039 162.65071289 33.79790039 162.65071289 35.56835938 163.50585938 C38.70649985 165.0164158 41.85035598 166.51360238 45 168 C45.73186523 168.34869141 46.46373047 168.69738281 47.21777344 169.05664062 C52.1935748 171.3311412 54.74491157 171.18663287 60 170 C64.53240075 168.24884516 66.34644072 165.52703449 68.2734375 161.234375 C70.93644163 153.04492144 68.20983906 144.80519521 64.74609375 137.2734375 C56.14297861 120.62980876 43.0651166 110.70027677 27 101.8125 C25.79373195 101.13442129 24.58800076 100.45538665 23.3828125 99.77539062 C16.29021007 95.7852049 9.14467013 91.8970928 2 88 Z M2 170 C2 190.13 2 210.26 2 231 C10.77274819 234.50909928 19.51726874 237.60277335 28.49536133 240.48364258 C30.21104265 241.03758819 31.92427977 241.59916016 33.63500977 242.16821289 C36.13813111 243.0005133 38.6478438 243.80921272 41.16015625 244.61328125 C42.2902285 244.99592888 42.2902285 244.99592888 43.44313049 245.38630676 C49.6151398 247.31477411 55.54534599 247.59363296 61.5234375 244.8359375 C66.68424357 240.76390908 69.3916767 237.30665247 70.34375 230.56640625 C70.96434465 219.87666345 66.73603672 210.0864299 59.85546875 202.046875 C59.24316406 201.37140625 58.63085938 200.6959375 58 200 C57.43925781 199.32453125 56.87851563 198.6490625 56.30078125 197.953125 C46.9619596 187.50012723 32.33815617 182.70406124 19.8125 177.0625 C18.83647324 176.62268295 18.83647324 176.62268295 17.84072876 176.17398071 C15.96482778 175.33146987 14.08652342 174.49462089 12.20703125 173.66015625 C11.1085083 173.17168213 10.00998535 172.68320801 8.87817383 172.17993164 C5.86713394 170.86507746 5.86713394 170.86507746 2 170 Z M2 254 C2 275.45 2 296.9 2 319 C10.82899883 320.65543728 19.42185029 322.26207378 28.28125 323.4609375 C31.06406499 323.86432875 33.82487791 324.30508197 36.59375 324.7890625 C37.38668457 324.92699219 38.17961914 325.06492187 38.99658203 325.20703125 C40.53502676 325.4773882 42.07254856 325.75307449 43.60888672 326.03515625 C51.86938481 327.48116268 58.86514797 328.00769118 66 323 C71.85937147 317.77550399 74.62510884 311.8738753 75.375 304.125 C74.81438216 292.16515274 68.59862042 282.14710826 60.3203125 273.88671875 C53.79259464 268.57882695 47.31340711 265.84907796 39.2265625 263.66796875 C38.22160736 263.3864949 37.21665222 263.10502106 36.1812439 262.8150177 C32.99901684 261.92719074 29.81215535 261.05744733 26.625 260.1875 C24.46192883 259.5850991 22.29916482 258.98159411 20.13671875 258.37695312 C16.20046352 257.2829651 12.26420272 256.18915384 8.32275391 255.11401367 C7.53413971 254.89815109 6.74552551 254.68228851 5.93301392 254.45988464 C4.0068789 253.9228498 4.0068789 253.9228498 2 254 Z " fill="#0171B8" transform="translate(82,0)"/>
<path d="M0 0 C0.32700736 8.21517285 0.5743959 16.42755233 0.72537041 24.64766026 C0.79790505 28.46661052 0.89590869 32.2810559 1.05615234 36.09741211 C2.20306148 64.14711855 2.20306148 64.14711855 -4.72897339 72.30491638 C-7.07043565 74.59580142 -9.49626081 76.63224485 -12.13641357 78.56930542 C-16.66392201 82.04512049 -20.49542742 86.35618799 -24.1875 90.6875 C-27.29615326 94.30139713 -30.61114646 97.65286826 -34 101 C-37.8989733 104.8512064 -41.60824316 108.76421751 -45.16015625 112.94140625 C-47.95697942 116.07076041 -50.96475348 118.98541629 -53.95117188 121.93164062 C-57.20017042 125.15382487 -60.22451392 128.49349474 -63.19140625 131.97265625 C-66.16372826 135.30448157 -69.38070091 138.38921036 -72.55859375 141.5234375 C-75.42740981 144.43356451 -78.09542641 147.47361356 -80.72265625 150.6015625 C-81.35494141 151.29378906 -81.35494141 151.29378906 -82 152 C-82.33 152 -82.66 152 -83 152 C-83.32690071 143.52403755 -83.57434729 135.05077815 -83.72537041 126.57003689 C-83.79792522 122.63009359 -83.89597514 118.69451195 -84.05615234 114.75708008 C-85.20216639 85.81690857 -85.20216639 85.81690857 -78.40715027 77.7628479 C-75.99498483 75.41078851 -73.48889323 73.31363643 -70.76928711 71.32662964 C-68.23122001 69.42356087 -66.12031616 67.17666164 -63.94140625 64.87890625 C-62.48450915 63.43733147 -61.02497849 61.99841213 -59.5625 60.5625 C-55.43863269 56.51079135 -51.35542614 52.480273 -47.58984375 48.08984375 C-42.52807845 42.20580398 -36.90830907 36.86490148 -31.3828125 31.421875 C-26.98742713 27.06656913 -22.76116797 22.66115215 -18.73339844 17.96484375 C-15.52125767 14.32381433 -12.06653304 10.92251905 -8.625 7.5 C-7.90183594 6.77296875 -7.17867188 6.0459375 -6.43359375 5.296875 C-5.74652344 4.61109375 -5.05945313 3.9253125 -4.3515625 3.21875 C-3.73104004 2.59935547 -3.11051758 1.97996094 -2.47119141 1.34179688 C-1 0 -1 0 0 0 Z " fill="#D1D2D4" transform="translate(83,0)"/>
<path d="M0 0 C0.06942626 8.57075848 0.12277341 17.14140001 0.15543652 25.71236992 C0.17111101 29.69197374 0.19238138 33.67138559 0.22631836 37.65087891 C0.25884887 41.48934956 0.27683957 45.32763524 0.28463173 49.16623306 C0.29018666 50.63272134 0.30103379 52.09919918 0.31719017 53.56560898 C0.33888161 55.61541591 0.34197055 57.66445275 0.34057617 59.71435547 C0.35056892 61.466418 0.35056892 61.466418 0.36076355 63.25387573 C0.24171158 64.16009674 0.12265961 65.06631775 0 66 C-3.25764262 68.17176175 -5.71172849 68.8111675 -9.5 69.75 C-15.4258633 71.26067067 -21.24536001 72.9902661 -27.0625 74.875 C-34.90573703 77.40517965 -42.80583217 79.61904 -50.76953125 81.73632812 C-57.90000772 83.65024497 -64.92854715 85.81118465 -71.92382812 88.171875 C-72.65150391 88.41164063 -73.37917969 88.65140625 -74.12890625 88.8984375 C-75.07358765 89.21820557 -75.07358765 89.21820557 -76.03735352 89.54443359 C-78 90 -78 90 -83 90 C-83 73.83 -83 57.66 -83 41 C-61.18614989 29.51902626 -61.18614989 29.51902626 -52.42578125 25.2734375 C-50.95820625 24.55735825 -50.95820625 24.55735825 -49.46098328 23.82681274 C-46.41283134 22.34010012 -43.36278645 20.85732748 -40.3125 19.375 C-36.26632987 17.40487022 -32.22101686 15.4329852 -28.17578125 13.4609375 C-27.21326447 12.99234314 -26.25074768 12.52374878 -25.25906372 12.04095459 C-18.6771824 8.83244202 -12.11818391 5.58109973 -5.5896759 2.26522827 C-1.10541228 0 -1.10541228 0 0 0 Z " fill="#D1D2D4" transform="translate(83,253)"/>
<path d="M0 0 C0 20.79 0 41.58 0 63 C-4.228125 65.330625 -8.45625 67.66125 -12.8125 70.0625 C-22.7986612 75.57075992 -32.77970191 81.08806525 -42.75 86.625 C-43.84086914 87.23037598 -44.93173828 87.83575195 -46.05566406 88.45947266 C-51.77377068 91.63666863 -57.48122392 94.83164332 -63.17578125 98.05078125 C-64.34338379 98.70954478 -65.51102638 99.36823733 -66.67871094 100.02685547 C-68.8910981 101.27607206 -71.10147537 102.52885666 -73.30957031 103.78564453 C-74.78248535 104.61684814 -74.78248535 104.61684814 -76.28515625 105.46484375 C-77.15019775 105.955896 -78.01523926 106.44694824 -78.90649414 106.95288086 C-81 108 -81 108 -83 108 C-83.40900891 101.52843102 -83.68711422 95.06022499 -83.87890625 88.57861328 C-83.95889986 86.37975659 -84.06775509 84.18173872 -84.20703125 81.98583984 C-85.29958106 64.3042066 -85.29958106 64.3042066 -81.52697754 58.88345337 C-77.82082164 55.17181061 -73.54092743 52.56257032 -68.94946289 50.07806396 C-66.45093714 48.69636515 -64.23637899 47.04283671 -61.984375 45.29296875 C-60.57328695 44.2573078 -59.16183275 43.22214552 -57.75 42.1875 C-50.30034111 36.71378029 -42.89633643 31.18184546 -35.5078125 25.62597656 C-28.8488305 20.6239121 -22.15421792 15.6717311 -15.44140625 10.7421875 C-14.71308594 10.20722656 -13.98476562 9.67226562 -13.234375 9.12109375 C-12.53505859 8.60788574 -11.83574219 8.09467773 -11.11523438 7.56591797 C-8.2355091 5.43404379 -5.38566991 3.26330727 -2.54003906 1.08618164 C-1 0 -1 0 0 0 Z " fill="#D0D2D4" transform="translate(83,169)"/>
<path d="M0 0 C0.23267751 7.66680316 0.40986658 15.33323651 0.51812172 23.00277615 C0.57010951 26.56522064 0.64048542 30.12523417 0.75439453 33.6862793 C0.88481927 37.78977406 0.93252373 41.89075603 0.9765625 45.99609375 C1.02817535 47.26206894 1.07978821 48.52804413 1.13296509 49.8323822 C1.13624643 55.04808067 1.1184708 58.57295194 -2.17179871 62.77098083 C-4.68252987 65.0522043 -7.22662413 67.05116517 -10 69 C-11.15179357 69.92522043 -12.29966035 70.85537739 -13.44140625 71.79296875 C-14.47136719 72.58316406 -15.50132813 73.37335938 -16.5625 74.1875 C-21.95710621 78.36261283 -27.24872625 82.64612202 -32.5 87 C-37.69425742 91.30433016 -42.92441807 95.54671045 -48.25 99.6875 C-52.75666935 103.19268727 -57.16220198 106.78789648 -61.5 110.5 C-66.17262048 114.49685213 -70.92058206 118.38130572 -75.75 122.1875 C-76.35908203 122.66960937 -76.96816406 123.15171875 -77.59570312 123.6484375 C-81.87607107 127 -81.87607107 127 -83 127 C-88.27101129 88.44052513 -88.27101129 88.44052513 -79.98828125 75.79345703 C-72.97894671 66.60410419 -63.96225964 59.03094182 -54.84570312 52.00219727 C-47.0124267 45.9512435 -40.02569968 39.15425535 -33.06640625 32.12890625 C-31.66343442 30.72015078 -30.26045993 29.31139796 -28.85732174 27.90280819 C-26.42354997 25.45818902 -23.99314776 23.01022468 -21.5625 20.5625 C-18.63238778 17.61199062 -15.70166661 14.6621038 -12.76707458 11.71604919 C-10.94627412 9.88768749 -9.12774463 8.05706099 -7.31166077 6.22401428 C-6.49668625 5.40573654 -5.68171173 4.5874588 -4.84204102 3.74438477 C-4.12226578 3.01937271 -3.40249054 2.29436066 -2.66090393 1.54737854 C-1 0 -1 0 0 0 Z " fill="#D0D2D4" transform="translate(83,87)"/>
<path d="M0 0 C4.05742048 2.70494699 6.70146694 4.46871302 9.875 7.8125 C12.36029118 10.36307087 14.85835093 12.80799592 17.5625 15.125 C21.60354187 18.6001366 25.48800364 22.22994884 29.375 25.875 C33.54996574 29.78880679 37.7312532 33.68810905 42 37.5 C46.22400134 41.2734412 50.36633784 45.12833772 54.5 49 C59.44875123 53.63446686 64.43401836 58.21868419 69.48828125 62.73828125 C74.1417705 66.92859272 78.72687642 71.19346168 83.32226562 75.44726562 C86.0671749 77.98766478 88.81459647 80.52534042 91.5625 83.0625 C92.10036133 83.55911133 92.63822266 84.05572266 93.19238281 84.56738281 C98.7819831 89.72571798 104.38994643 94.86393115 110 100 C112.96503477 102.71452358 115.92943852 105.42971581 118.890625 108.1484375 C121.12565757 110.20034159 123.36655054 112.24567983 125.609375 114.2890625 C126.80217174 115.38011169 127.99488204 116.47125539 129.1875 117.5625 C129.75267334 118.07546631 130.31784668 118.58843262 130.90014648 119.11694336 C134.88668921 122.77337842 134.88668921 122.77337842 136 125 C132.36105072 123.63150275 129.0675892 121.99539358 125.703125 120.05078125 C124.67509766 119.4578125 123.64707031 118.86484375 122.58789062 118.25390625 C121.48638672 117.61324219 120.38488281 116.97257812 119.25 116.3125 C118.08532085 115.63796145 116.92060671 114.96348331 115.75585938 114.2890625 C106.91550448 109.1595691 98.1492832 103.91047671 89.39941406 98.62817383 C81.98370955 94.16144859 74.50966984 89.8066207 67 85.5 C57.41040725 80.00059197 47.90905642 74.37188197 38.44726562 68.65576172 C29.38920554 63.19817974 20.24031382 57.90750767 11.06054688 52.65820312 C9.49916992 51.76391602 9.49916992 51.76391602 7.90625 50.8515625 C6.98134766 50.32385254 6.05644531 49.79614258 5.10351562 49.25244141 C3 48 3 48 2 47 C1.67 52.61 1.34 58.22 1 64 C0.67 64 0.34 64 0 64 C0 42.88 0 21.76 0 0 Z " fill="#838587" transform="translate(83,0)"/>
</svg>
